<mxfile host="app.diagrams.net" modified="2024-06-14T03:31:27.954Z" agent="Mozilla/5.0 (Macintosh; Intel Mac OS X 10_15_7) AppleWebKit/537.36 (KHTML, like Gecko) Chrome/125.0.0.0 Safari/537.36" etag="KdaIDv0eWgzWxrjhq7Sx" version="24.5.4" type="github">
  <diagram name="Page-1" id="c7558073-3199-34d8-9f00-42111426c3f3">
    <mxGraphModel dx="869" dy="1651" grid="1" gridSize="10" guides="1" tooltips="1" connect="1" arrows="1" fold="1" page="1" pageScale="1" pageWidth="826" pageHeight="1169" background="none" math="0" shadow="0">
      <root>
        <mxCell id="0" />
        <mxCell id="1" parent="0" />
        <mxCell id="2" value="&lt;p style=&quot;margin: 0px; margin-top: 4px; text-align: center; text-decoration: underline;&quot;&gt;&lt;strong&gt;Process 1&lt;br /&gt;&lt;/strong&gt;&lt;/p&gt;&lt;hr /&gt;&lt;p style=&quot;margin: 0px; margin-left: 8px;&quot;&gt;System Study&lt;/p&gt;&lt;p style=&quot;margin: 0px; margin-left: 8px;&quot;&gt;Preparation&lt;/p&gt;" style="verticalAlign=middle;align=center;overflow=fill;fontSize=12;fontFamily=Helvetica;html=1;rounded=1;fontStyle=1;strokeWidth=3;fillColor=#E6FFCC" parent="1" vertex="1">
          <mxGeometry x="236" y="236" width="110" height="90" as="geometry" />
        </mxCell>
        <mxCell id="3" value="Engineering" style="whiteSpace=wrap;align=center;verticalAlign=middle;fontStyle=1;strokeWidth=3;fillColor=#FFFFCC" parent="1" vertex="1">
          <mxGeometry x="246" y="126" width="90" height="60" as="geometry" />
        </mxCell>
        <mxCell id="4" value="Investors" style="whiteSpace=wrap;align=center;verticalAlign=middle;fontStyle=1;strokeWidth=3;fillColor=#FFFFCC" parent="1" vertex="1">
          <mxGeometry x="40" y="251" width="90" height="60" as="geometry" />
        </mxCell>
        <mxCell id="5" value="ON-DEMAND SYSTEM DEVELOPMENT" style="shape=process;whiteSpace=wrap;align=center;verticalAlign=middle;size=0.0475;fontStyle=1;strokeWidth=3;fillColor=#FFCCCC" parent="1" vertex="1">
          <mxGeometry x="200.99999999999991" y="391" width="400" height="50" as="geometry" />
        </mxCell>
        <mxCell id="6" value="&lt;p style=&quot;margin: 0px; margin-top: 4px; text-align: center; text-decoration: underline;&quot;&gt;&lt;strong&gt;Process 2&lt;br /&gt;&lt;/strong&gt;&lt;/p&gt;&lt;hr /&gt;&lt;p style=&quot;margin: 0px; margin-left: 8px;&quot;&gt;System Analysis&lt;/p&gt;" style="verticalAlign=middle;align=center;overflow=fill;fontSize=12;fontFamily=Helvetica;html=1;rounded=1;fontStyle=1;strokeWidth=3;fillColor=#E6FFCC" parent="1" vertex="1">
          <mxGeometry x="390" y="146" width="110" height="90" as="geometry" />
        </mxCell>
        <mxCell id="7" value="&lt;p style=&quot;margin: 0px; margin-top: 4px; text-align: center; text-decoration: underline;&quot;&gt;&lt;strong&gt;&lt;strong&gt;Process&lt;/strong&gt; 3&lt;br /&gt;&lt;/strong&gt;&lt;/p&gt;&lt;hr /&gt;&lt;p style=&quot;margin: 0px; margin-left: 8px;&quot;&gt;List Possible&lt;/p&gt;&lt;p style=&quot;margin: 0px; margin-left: 8px;&quot;&gt;System Solutions&lt;/p&gt;" style="verticalAlign=middle;align=center;overflow=fill;fontSize=12;fontFamily=Helvetica;html=1;rounded=1;fontStyle=1;strokeWidth=3;fillColor=#E6FFCC" parent="1" vertex="1">
          <mxGeometry x="681" y="371" width="110" height="90" as="geometry" />
        </mxCell>
        <mxCell id="8" value="&lt;p style=&quot;margin: 0px; margin-top: 4px; text-align: center; text-decoration: underline;&quot;&gt;&lt;strong&gt;&lt;strong&gt;Process&lt;/strong&gt; 4&lt;br /&gt;&lt;/strong&gt;&lt;/p&gt;&lt;hr /&gt;&lt;p style=&quot;margin: 0px; margin-left: 8px;&quot;&gt;Detail Chosen&lt;/p&gt;&lt;p style=&quot;margin: 0px; margin-left: 8px;&quot;&gt;Solution&lt;/p&gt;" style="verticalAlign=middle;align=center;overflow=fill;fontSize=12;fontFamily=Helvetica;html=1;rounded=1;fontStyle=1;strokeWidth=3;fillColor=#E6FFCC" parent="1" vertex="1">
          <mxGeometry x="560" y="241" width="110" height="90" as="geometry" />
        </mxCell>
        <mxCell id="9" value="&lt;p style=&quot;margin: 0px; margin-top: 4px; text-align: center; text-decoration: underline;&quot;&gt;&lt;strong&gt;&lt;strong&gt;Process&lt;/strong&gt; 5&lt;br /&gt;&lt;/strong&gt;&lt;/p&gt;&lt;hr /&gt;&lt;p style=&quot;margin: 0px; margin-left: 8px;&quot;&gt;New System&lt;/p&gt;&lt;p style=&quot;margin: 0px; margin-left: 8px;&quot;&gt;Design&lt;/p&gt;" style="verticalAlign=middle;align=center;overflow=fill;fontSize=12;fontFamily=Helvetica;html=1;rounded=1;fontStyle=1;strokeWidth=3;fillColor=#E6FFCC" parent="1" vertex="1">
          <mxGeometry x="540" y="510" width="110" height="90" as="geometry" />
        </mxCell>
        <mxCell id="10" value="&lt;p style=&quot;margin: 0px; margin-top: 4px; text-align: center; text-decoration: underline;&quot;&gt;&lt;strong&gt;&lt;strong&gt;Process&lt;/strong&gt; 6&lt;br /&gt;&lt;/strong&gt;&lt;/p&gt;&lt;hr /&gt;&lt;p style=&quot;margin: 0px; margin-left: 8px;&quot;&gt;New&lt;/p&gt;&lt;p style=&quot;margin: 0px; margin-left: 8px;&quot;&gt;System&lt;/p&gt;&lt;p style=&quot;margin: 0px; margin-left: 8px;&quot;&gt;Construction&lt;/p&gt;" style="verticalAlign=middle;align=center;overflow=fill;fontSize=12;fontFamily=Helvetica;html=1;rounded=1;fontStyle=1;strokeWidth=3;fillColor=#E6FFCC" parent="1" vertex="1">
          <mxGeometry x="188.49999999999991" y="510" width="110" height="90" as="geometry" />
        </mxCell>
        <mxCell id="12" value="Management" style="whiteSpace=wrap;align=center;verticalAlign=middle;fontStyle=1;strokeWidth=3;fillColor=#FFFFCC" parent="1" vertex="1">
          <mxGeometry x="691" y="60.00000000000002" width="90" height="60" as="geometry" />
        </mxCell>
        <mxCell id="13" value="Management" style="whiteSpace=wrap;align=center;verticalAlign=middle;fontStyle=1;strokeWidth=3;fillColor=#FFFFCC" parent="1" vertex="1">
          <mxGeometry x="353.50000000000006" y="650" width="90" height="60" as="geometry" />
        </mxCell>
        <mxCell id="14" value="Engineering" style="whiteSpace=wrap;align=center;verticalAlign=middle;fontStyle=1;strokeWidth=3;fillColor=#FFFFCC" parent="1" vertex="1">
          <mxGeometry x="34.99999999999997" y="524.9999999999999" width="90" height="60" as="geometry" />
        </mxCell>
        <mxCell id="15" value="Vendors" style="whiteSpace=wrap;align=center;verticalAlign=middle;fontStyle=1;strokeWidth=3;fillColor=#FFFFCC" parent="1" vertex="1">
          <mxGeometry x="549.9999999999999" y="650" width="90" height="60" as="geometry" />
        </mxCell>
        <mxCell id="36" value="" style="edgeStyle=none;noEdgeStyle=1;strokeColor=#990000;strokeWidth=2" parent="1" source="3" target="2" edge="1">
          <mxGeometry width="100" height="100" relative="1" as="geometry">
            <mxPoint x="20" y="250" as="sourcePoint" />
            <mxPoint x="120" y="150" as="targetPoint" />
          </mxGeometry>
        </mxCell>
        <mxCell id="37" value="" style="edgeStyle=none;noEdgeStyle=1;strokeColor=#990000;strokeWidth=2" parent="1" source="4" target="2" edge="1">
          <mxGeometry width="100" height="100" relative="1" as="geometry">
            <mxPoint x="280" y="190" as="sourcePoint" />
            <mxPoint x="380" y="90" as="targetPoint" />
          </mxGeometry>
        </mxCell>
        <mxCell id="11" value="&lt;p style=&quot;margin: 0px; margin-top: 4px; text-align: center; text-decoration: underline;&quot;&gt;&lt;strong&gt;&lt;strong&gt;Process&lt;/strong&gt; 7&lt;br /&gt;&lt;/strong&gt;&lt;/p&gt;&lt;hr /&gt;&lt;p style=&quot;margin: 0px; margin-left: 8px;&quot;&gt;New System&lt;/p&gt;&lt;p style=&quot;margin: 0px; margin-left: 8px;&quot;&gt;Startup and&lt;/p&gt;&lt;p style=&quot;margin: 0px; margin-left: 8px;&quot;&gt;Testing&lt;/p&gt;" style="verticalAlign=middle;align=center;overflow=fill;fontSize=12;fontFamily=Helvetica;html=1;rounded=1;fontStyle=1;strokeWidth=3;fillColor=#E6FFCC" parent="1" vertex="1">
          <mxGeometry x="343.49999999999994" y="510" width="110" height="90" as="geometry" />
        </mxCell>
        <mxCell id="51" value="" style="endArrow=none;noEdgeStyle=1;strokeColor=#990000;strokeWidth=2" parent="1" source="9" target="11" edge="1">
          <mxGeometry relative="1" as="geometry">
            <mxPoint x="205.00819672131135" y="481" as="sourcePoint" />
            <mxPoint x="400.32786885245895" y="650" as="targetPoint" />
          </mxGeometry>
        </mxCell>
        <mxCell id="52" value="Desired &#xa;functionality" style="text;spacingTop=-5;align=center" parent="1" vertex="1">
          <mxGeometry x="165" y="251" width="30" height="20" as="geometry" />
        </mxCell>
        <mxCell id="53" value="Desired &#xa;functionality" style="text;spacingTop=-5;align=center" parent="1" vertex="1">
          <mxGeometry x="241" y="196" width="30" height="20" as="geometry" />
        </mxCell>
        <mxCell id="54" value="Documentation&#xa;from similar projects" style="text;spacingTop=-5;align=center" parent="1" vertex="1">
          <mxGeometry x="186" y="341" width="30" height="20" as="geometry" />
        </mxCell>
        <mxCell id="55" value="" style="edgeStyle=elbowEdgeStyle;elbow=horizontal;strokeColor=#990000;strokeWidth=2" parent="1" source="5" target="2" edge="1">
          <mxGeometry width="100" height="100" relative="1" as="geometry">
            <mxPoint x="50" y="530" as="sourcePoint" />
            <mxPoint x="150" y="430" as="targetPoint" />
            <Array as="points">
              <mxPoint x="260" y="370" />
            </Array>
          </mxGeometry>
        </mxCell>
        <mxCell id="56" value="" style="edgeStyle=elbowEdgeStyle;elbow=horizontal;strokeColor=#990000;strokeWidth=2" parent="1" source="2" target="5" edge="1">
          <mxGeometry width="100" height="100" relative="1" as="geometry">
            <mxPoint x="50" y="500" as="sourcePoint" />
            <mxPoint x="150" y="400" as="targetPoint" />
            <Array as="points">
              <mxPoint x="280" y="360" />
            </Array>
          </mxGeometry>
        </mxCell>
        <mxCell id="57" value="Elaborate&#xa;cost/benefit&#xa;ratio" style="text;spacingTop=-5;align=center" parent="1" vertex="1">
          <mxGeometry x="306" y="341" width="30" height="20" as="geometry" />
        </mxCell>
        <mxCell id="58" value="" style="edgeStyle=elbowEdgeStyle;elbow=horizontal;strokeColor=#990000;strokeWidth=2" parent="1" source="5" target="6" edge="1">
          <mxGeometry width="100" height="100" relative="1" as="geometry">
            <mxPoint x="380" y="370" as="sourcePoint" />
            <mxPoint x="480" y="270" as="targetPoint" />
            <Array as="points">
              <mxPoint x="440" y="310" />
            </Array>
          </mxGeometry>
        </mxCell>
        <mxCell id="59" value="" style="edgeStyle=elbowEdgeStyle;elbow=horizontal;strokeColor=#990000;strokeWidth=2" parent="1" source="6" target="5" edge="1">
          <mxGeometry width="100" height="100" relative="1" as="geometry">
            <mxPoint x="350" y="370" as="sourcePoint" />
            <mxPoint x="450" y="270" as="targetPoint" />
            <Array as="points">
              <mxPoint x="460" y="320" />
            </Array>
          </mxGeometry>
        </mxCell>
        <mxCell id="60" value="Existing&#xa;documentation" style="text;spacingTop=-5;align=center" parent="1" vertex="1">
          <mxGeometry x="380.0000000000001" y="280.99999999999983" width="30" height="20" as="geometry" />
        </mxCell>
        <mxCell id="61" value="Necessary&#xa;resources" style="text;spacingTop=-5;align=center" parent="1" vertex="1">
          <mxGeometry x="481.0000000000002" y="251.00000000000006" width="30" height="20" as="geometry" />
        </mxCell>
        <mxCell id="62" value="Progress&#xa;reports" style="text;spacingTop=-5;align=center" parent="1" vertex="1">
          <mxGeometry x="545.0000000000001" y="100.00000000000003" width="30" height="20" as="geometry" />
        </mxCell>
        <mxCell id="63" value="Progress&#xa;reports" style="text;spacingTop=-5;align=center" parent="1" vertex="1">
          <mxGeometry x="640" y="146.0000000000001" width="30" height="20" as="geometry" />
        </mxCell>
        <mxCell id="64" value="Progress&#xa;reports" style="text;spacingTop=-5;align=center" parent="1" vertex="1">
          <mxGeometry x="751.0000000000001" y="261.0000000000001" width="30" height="20" as="geometry" />
        </mxCell>
        <mxCell id="65" value="" style="edgeStyle=elbowEdgeStyle;elbow=horizontal;strokeColor=#990000;strokeWidth=2" parent="1" source="6" target="12" edge="1">
          <mxGeometry width="100" height="100" relative="1" as="geometry">
            <mxPoint x="260" y="180.0000000000001" as="sourcePoint" />
            <mxPoint x="360" y="80.00000000000011" as="targetPoint" />
            <Array as="points">
              <mxPoint x="445" y="140" />
            </Array>
          </mxGeometry>
        </mxCell>
        <mxCell id="66" value="" style="edgeStyle=elbowEdgeStyle;elbow=vertical;entryX=0.25;entryY=1;strokeColor=#990000;strokeWidth=2" parent="1" source="8" target="12" edge="1">
          <mxGeometry width="100" height="100" relative="1" as="geometry">
            <mxPoint x="530" y="250" as="sourcePoint" />
            <mxPoint x="630" y="150" as="targetPoint" />
          </mxGeometry>
        </mxCell>
        <mxCell id="67" value="" style="edgeStyle=elbowEdgeStyle;elbow=horizontal;strokeColor=#990000;strokeWidth=2" parent="1" source="7" target="12" edge="1">
          <mxGeometry width="100" height="100" relative="1" as="geometry">
            <mxPoint x="660.0000000000002" y="360" as="sourcePoint" />
            <mxPoint x="760.0000000000002" y="260" as="targetPoint" />
          </mxGeometry>
        </mxCell>
        <mxCell id="68" value="" style="edgeStyle=elbowEdgeStyle;elbow=horizontal;strokeColor=#990000;strokeWidth=2" parent="1" source="8" target="5" edge="1">
          <mxGeometry width="100" height="100" relative="1" as="geometry">
            <mxPoint x="570" y="380" as="sourcePoint" />
            <mxPoint x="510" y="250" as="targetPoint" />
            <Array as="points">
              <mxPoint x="570" y="360" />
            </Array>
          </mxGeometry>
        </mxCell>
        <mxCell id="69" value="" style="edgeStyle=segmentEdgeStyle;strokeColor=#990000;strokeWidth=2" parent="1" source="5" target="8" edge="1">
          <mxGeometry width="100" height="100" relative="1" as="geometry">
            <mxPoint x="340" y="360" as="sourcePoint" />
            <mxPoint x="440" y="260" as="targetPoint" />
            <Array as="points">
              <mxPoint x="520" y="286" />
            </Array>
          </mxGeometry>
        </mxCell>
        <mxCell id="70" value="Existing&#xa;Models" style="text;spacingTop=-5;align=center" parent="1" vertex="1">
          <mxGeometry x="530.0000000000002" y="340.9999999999999" width="30" height="20" as="geometry" />
        </mxCell>
        <mxCell id="71" value="Equipment&#xa;specification" style="text;spacingTop=-5;align=center" parent="1" vertex="1">
          <mxGeometry x="615" y="341" width="30" height="20" as="geometry" />
        </mxCell>
        <mxCell id="72" value="" style="edgeStyle=elbowEdgeStyle;elbow=vertical;strokeColor=#990000;strokeWidth=2" parent="1" source="5" target="7" edge="1">
          <mxGeometry width="100" height="100" relative="1" as="geometry">
            <mxPoint x="500" y="500" as="sourcePoint" />
            <mxPoint x="600" y="400" as="targetPoint" />
            <Array as="points">
              <mxPoint x="650" y="410" />
            </Array>
          </mxGeometry>
        </mxCell>
        <mxCell id="73" value="" style="edgeStyle=elbowEdgeStyle;elbow=vertical;strokeColor=#990000;strokeWidth=2" parent="1" source="7" target="5" edge="1">
          <mxGeometry width="100" height="100" relative="1" as="geometry">
            <mxPoint x="460" y="500" as="sourcePoint" />
            <mxPoint x="560" y="400" as="targetPoint" />
            <Array as="points">
              <mxPoint x="650" y="430" />
            </Array>
          </mxGeometry>
        </mxCell>
        <mxCell id="74" value="Resources" style="text;spacingTop=-5;align=center" parent="1" vertex="1">
          <mxGeometry x="621" y="390.99999999999994" width="30" height="20" as="geometry" />
        </mxCell>
        <mxCell id="75" value="System &#xa;Advantages &#xa;and Limitations" style="text;spacingTop=-5;align=center" parent="1" vertex="1">
          <mxGeometry x="630" y="431.0000000000001" width="30" height="20" as="geometry" />
        </mxCell>
        <mxCell id="76" value="" style="edgeStyle=elbowEdgeStyle;elbow=horizontal;strokeColor=#990000;strokeWidth=2" parent="1" source="9" target="5" edge="1">
          <mxGeometry width="100" height="100" relative="1" as="geometry">
            <mxPoint x="420" y="580" as="sourcePoint" />
            <mxPoint x="520" y="480" as="targetPoint" />
            <Array as="points">
              <mxPoint x="570" y="470" />
            </Array>
          </mxGeometry>
        </mxCell>
        <mxCell id="77" value="" style="edgeStyle=elbowEdgeStyle;elbow=horizontal;strokeColor=#990000;strokeWidth=2" parent="1" source="5" target="9" edge="1">
          <mxGeometry width="100" height="100" relative="1" as="geometry">
            <mxPoint x="400" y="590" as="sourcePoint" />
            <mxPoint x="500" y="490" as="targetPoint" />
            <Array as="points">
              <mxPoint x="560" y="480" />
            </Array>
          </mxGeometry>
        </mxCell>
        <mxCell id="78" value="" style="edgeStyle=elbowEdgeStyle;elbow=horizontal;strokeColor=#990000;strokeWidth=2" parent="1" source="15" target="9" edge="1">
          <mxGeometry width="100" height="100" relative="1" as="geometry">
            <mxPoint x="430" y="700" as="sourcePoint" />
            <mxPoint x="530" y="600" as="targetPoint" />
          </mxGeometry>
        </mxCell>
        <mxCell id="79" value="Hardware and&#xa;Software specs" style="text;spacingTop=-5;align=center" parent="1" vertex="1">
          <mxGeometry x="625" y="610" width="30" height="20" as="geometry" />
        </mxCell>
        <mxCell id="81" value="" style="edgeStyle=elbowEdgeStyle;elbow=horizontal;exitX=0;exitY=0.75;strokeColor=#990000;strokeWidth=2" parent="1" source="9" target="13" edge="1">
          <mxGeometry width="100" height="100" relative="1" as="geometry">
            <mxPoint x="420" y="730" as="sourcePoint" />
            <mxPoint x="520" y="630" as="targetPoint" />
            <Array as="points">
              <mxPoint x="470" y="630" />
            </Array>
          </mxGeometry>
        </mxCell>
        <mxCell id="82" value="Progress&#xa;Reports" style="text;spacingTop=-5;align=center" parent="1" vertex="1">
          <mxGeometry x="481.0000000000004" y="610.0000000000001" width="30" height="20" as="geometry" />
        </mxCell>
        <mxCell id="83" value="" style="edgeStyle=elbowEdgeStyle;elbow=horizontal;strokeColor=#990000;strokeWidth=2" parent="1" source="11" target="13" edge="1">
          <mxGeometry width="100" height="100" relative="1" as="geometry">
            <mxPoint x="200" y="660.0000000000002" as="sourcePoint" />
            <mxPoint x="230.0000000000001" y="650" as="targetPoint" />
          </mxGeometry>
        </mxCell>
        <mxCell id="84" value="Progress&#xa;Reports" style="text;spacingTop=-5;align=center" parent="1" vertex="1">
          <mxGeometry x="410.00000000000017" y="610.0000000000002" width="30" height="20" as="geometry" />
        </mxCell>
        <mxCell id="85" value="" style="edgeStyle=elbowEdgeStyle;elbow=horizontal;strokeColor=#990000;strokeWidth=2" parent="1" source="10" target="13" edge="1">
          <mxGeometry width="100" height="100" relative="1" as="geometry">
            <mxPoint x="130.0000000000001" y="740" as="sourcePoint" />
            <mxPoint x="230.0000000000001" y="640" as="targetPoint" />
            <Array as="points">
              <mxPoint x="244" y="630" />
            </Array>
          </mxGeometry>
        </mxCell>
        <mxCell id="86" value="Progress&#xa;Reports" style="text;spacingTop=-5;align=center" parent="1" vertex="1">
          <mxGeometry x="255.99999999999994" y="650.0000000000001" width="30" height="20" as="geometry" />
        </mxCell>
        <mxCell id="87" value="" style="edgeStyle=elbowEdgeStyle;elbow=vertical;strokeColor=#990000;strokeWidth=2" parent="1" source="10" target="14" edge="1">
          <mxGeometry width="100" height="100" relative="1" as="geometry">
            <mxPoint x="70" y="740" as="sourcePoint" />
            <mxPoint x="170" y="640" as="targetPoint" />
          </mxGeometry>
        </mxCell>
        <mxCell id="88" value="" style="edgeStyle=elbowEdgeStyle;elbow=horizontal;strokeColor=#990000;strokeWidth=2" parent="1" source="5" target="11" edge="1">
          <mxGeometry width="100" height="100" relative="1" as="geometry">
            <mxPoint x="50" y="500" as="sourcePoint" />
            <mxPoint x="150" y="400" as="targetPoint" />
            <Array as="points">
              <mxPoint x="390" y="470" />
            </Array>
          </mxGeometry>
        </mxCell>
        <mxCell id="89" value="" style="edgeStyle=elbowEdgeStyle;elbow=horizontal;strokeColor=#990000;strokeWidth=2" parent="1" source="11" target="5" edge="1">
          <mxGeometry width="100" height="100" relative="1" as="geometry">
            <mxPoint x="59.999999999999886" y="510" as="sourcePoint" />
            <mxPoint x="159.9999999999999" y="410" as="targetPoint" />
            <Array as="points">
              <mxPoint x="410" y="470" />
            </Array>
          </mxGeometry>
        </mxCell>
        <mxCell id="90" value="Version&#xa;specs" style="text;spacingTop=-5;align=center" parent="1" vertex="1">
          <mxGeometry x="261" y="461" width="30" height="20" as="geometry" />
        </mxCell>
        <mxCell id="91" value="Certificates,&#xa;system&#xa;libraries" style="text;spacingTop=-5;align=center" parent="1" vertex="1">
          <mxGeometry x="180" y="461.0000000000002" width="30" height="20" as="geometry" />
        </mxCell>
        <mxCell id="92" value="" style="edgeStyle=elbowEdgeStyle;elbow=horizontal;strokeColor=#990000;strokeWidth=2" parent="1" source="5" target="10" edge="1">
          <mxGeometry width="100" height="100" relative="1" as="geometry">
            <mxPoint x="30.000000000000114" y="500" as="sourcePoint" />
            <mxPoint x="130.0000000000001" y="400" as="targetPoint" />
            <Array as="points">
              <mxPoint x="250" y="470" />
            </Array>
          </mxGeometry>
        </mxCell>
        <mxCell id="93" value="" style="edgeStyle=elbowEdgeStyle;elbow=horizontal;strokeColor=#990000;strokeWidth=2" parent="1" source="10" target="5" edge="1">
          <mxGeometry width="100" height="100" relative="1" as="geometry">
            <mxPoint x="40" y="510" as="sourcePoint" />
            <mxPoint x="140" y="410" as="targetPoint" />
            <Array as="points">
              <mxPoint x="230" y="470" />
            </Array>
          </mxGeometry>
        </mxCell>
        <mxCell id="94" value="System&#xa;specs" style="text;spacingTop=-5;align=center" parent="1" vertex="1">
          <mxGeometry x="139.99999999999994" y="565.0000000000001" width="30" height="20" as="geometry" />
        </mxCell>
        <mxCell id="95" value="Design&#xa;specs" style="text;spacingTop=-5;align=center" parent="1" vertex="1">
          <mxGeometry x="423.49999999999994" y="461.0000000000002" width="30" height="20" as="geometry" />
        </mxCell>
        <mxCell id="96" value="System&#xa;version" style="text;spacingTop=-5;align=center" parent="1" vertex="1">
          <mxGeometry x="350.9999999999998" y="461" width="30" height="20" as="geometry" />
        </mxCell>
        <mxCell id="-wAExD0xk3u-_58iLFmG-97" value="新手引导静态页" style="whiteSpace=wrap;align=center;verticalAlign=middle;fontStyle=1;strokeWidth=3;fillColor=#FFFFCC" vertex="1" parent="1">
          <mxGeometry x="1300" y="121.5" width="90" height="60" as="geometry" />
        </mxCell>
        <mxCell id="-wAExD0xk3u-_58iLFmG-104" value="" style="edgeStyle=orthogonalEdgeStyle;rounded=0;orthogonalLoop=1;jettySize=auto;html=1;" edge="1" parent="1" source="-wAExD0xk3u-_58iLFmG-99" target="-wAExD0xk3u-_58iLFmG-103">
          <mxGeometry relative="1" as="geometry" />
        </mxCell>
        <mxCell id="-wAExD0xk3u-_58iLFmG-99" value="开始游戏&#xa;(排队新增robot)" style="whiteSpace=wrap;align=center;verticalAlign=middle;fontStyle=1;strokeWidth=3;fillColor=#FFFFCC" vertex="1" parent="1">
          <mxGeometry x="1105" y="417" width="120" height="64" as="geometry" />
        </mxCell>
        <mxCell id="-wAExD0xk3u-_58iLFmG-106" value="" style="edgeStyle=orthogonalEdgeStyle;rounded=0;orthogonalLoop=1;jettySize=auto;html=1;" edge="1" parent="1" source="-wAExD0xk3u-_58iLFmG-103" target="-wAExD0xk3u-_58iLFmG-105">
          <mxGeometry relative="1" as="geometry" />
        </mxCell>
        <mxCell id="-wAExD0xk3u-_58iLFmG-122" value="是" style="edgeLabel;html=1;align=center;verticalAlign=middle;resizable=0;points=[];" vertex="1" connectable="0" parent="-wAExD0xk3u-_58iLFmG-106">
          <mxGeometry x="-0.1914" y="2" relative="1" as="geometry">
            <mxPoint as="offset" />
          </mxGeometry>
        </mxCell>
        <mxCell id="-wAExD0xk3u-_58iLFmG-110" value="" style="edgeStyle=orthogonalEdgeStyle;rounded=0;orthogonalLoop=1;jettySize=auto;html=1;" edge="1" parent="1" source="-wAExD0xk3u-_58iLFmG-103" target="-wAExD0xk3u-_58iLFmG-109">
          <mxGeometry relative="1" as="geometry" />
        </mxCell>
        <mxCell id="-wAExD0xk3u-_58iLFmG-121" value="否" style="edgeLabel;html=1;align=center;verticalAlign=middle;resizable=0;points=[];" vertex="1" connectable="0" parent="-wAExD0xk3u-_58iLFmG-110">
          <mxGeometry x="-0.1504" y="1" relative="1" as="geometry">
            <mxPoint as="offset" />
          </mxGeometry>
        </mxCell>
        <mxCell id="-wAExD0xk3u-_58iLFmG-103" value="是否进球？" style="rhombus;whiteSpace=wrap;html=1;fillColor=#FFFFCC;fontStyle=1;strokeWidth=3;" vertex="1" parent="1">
          <mxGeometry x="1112.5" y="640" width="105" height="99" as="geometry" />
        </mxCell>
        <mxCell id="-wAExD0xk3u-_58iLFmG-197" value="" style="edgeStyle=orthogonalEdgeStyle;rounded=0;orthogonalLoop=1;jettySize=auto;html=1;" edge="1" parent="1" source="-wAExD0xk3u-_58iLFmG-105" target="-wAExD0xk3u-_58iLFmG-196">
          <mxGeometry relative="1" as="geometry" />
        </mxCell>
        <mxCell id="-wAExD0xk3u-_58iLFmG-105" value="播放庆祝动画&lt;div&gt;自动弹窗转盘开始抽奖&lt;/div&gt;" style="whiteSpace=wrap;html=1;fillColor=#FFFFCC;fontStyle=1;strokeWidth=3;" vertex="1" parent="1">
          <mxGeometry x="1087.5" y="820" width="155" height="70" as="geometry" />
        </mxCell>
        <mxCell id="-wAExD0xk3u-_58iLFmG-112" value="" style="edgeStyle=orthogonalEdgeStyle;rounded=0;orthogonalLoop=1;jettySize=auto;html=1;" edge="1" parent="1" source="-wAExD0xk3u-_58iLFmG-109" target="-wAExD0xk3u-_58iLFmG-111">
          <mxGeometry relative="1" as="geometry" />
        </mxCell>
        <mxCell id="-wAExD0xk3u-_58iLFmG-109" value="播放失败动画" style="whiteSpace=wrap;html=1;fillColor=#FFFFCC;fontStyle=1;strokeWidth=3;" vertex="1" parent="1">
          <mxGeometry x="1265" y="660" width="120" height="60" as="geometry" />
        </mxCell>
        <mxCell id="-wAExD0xk3u-_58iLFmG-114" value="" style="edgeStyle=orthogonalEdgeStyle;rounded=0;orthogonalLoop=1;jettySize=auto;html=1;" edge="1" parent="1" source="-wAExD0xk3u-_58iLFmG-111" target="-wAExD0xk3u-_58iLFmG-113">
          <mxGeometry relative="1" as="geometry" />
        </mxCell>
        <mxCell id="-wAExD0xk3u-_58iLFmG-124" value="是" style="edgeLabel;html=1;align=center;verticalAlign=middle;resizable=0;points=[];" vertex="1" connectable="0" parent="-wAExD0xk3u-_58iLFmG-114">
          <mxGeometry x="-0.3773" y="1" relative="1" as="geometry">
            <mxPoint as="offset" />
          </mxGeometry>
        </mxCell>
        <mxCell id="-wAExD0xk3u-_58iLFmG-139" value="" style="edgeStyle=orthogonalEdgeStyle;rounded=0;orthogonalLoop=1;jettySize=auto;html=1;" edge="1" parent="1" source="-wAExD0xk3u-_58iLFmG-111" target="-wAExD0xk3u-_58iLFmG-137">
          <mxGeometry relative="1" as="geometry" />
        </mxCell>
        <mxCell id="-wAExD0xk3u-_58iLFmG-151" value="否" style="edgeLabel;html=1;align=center;verticalAlign=middle;resizable=0;points=[];" vertex="1" connectable="0" parent="-wAExD0xk3u-_58iLFmG-139">
          <mxGeometry x="-0.2105" y="-2" relative="1" as="geometry">
            <mxPoint as="offset" />
          </mxGeometry>
        </mxCell>
        <mxCell id="-wAExD0xk3u-_58iLFmG-111" value="是否新用户？" style="rhombus;whiteSpace=wrap;html=1;fillColor=#FFFFCC;fontStyle=1;strokeWidth=3;" vertex="1" parent="1">
          <mxGeometry x="1440" y="645.5" width="115" height="89" as="geometry" />
        </mxCell>
        <mxCell id="-wAExD0xk3u-_58iLFmG-120" value="" style="edgeStyle=orthogonalEdgeStyle;rounded=0;orthogonalLoop=1;jettySize=auto;html=1;" edge="1" parent="1" source="-wAExD0xk3u-_58iLFmG-113" target="-wAExD0xk3u-_58iLFmG-119">
          <mxGeometry relative="1" as="geometry" />
        </mxCell>
        <mxCell id="-wAExD0xk3u-_58iLFmG-113" value="排队引导&lt;div&gt;助力分享引导&lt;/div&gt;" style="whiteSpace=wrap;html=1;fillColor=#FFFFCC;fontStyle=1;strokeWidth=3;" vertex="1" parent="1">
          <mxGeometry x="1610" y="660" width="120" height="60" as="geometry" />
        </mxCell>
        <mxCell id="-wAExD0xk3u-_58iLFmG-119" value="调起分享弹窗" style="whiteSpace=wrap;html=1;fillColor=#FFFFCC;fontStyle=1;strokeWidth=3;" vertex="1" parent="1">
          <mxGeometry x="1610" y="770" width="120" height="60" as="geometry" />
        </mxCell>
        <mxCell id="-wAExD0xk3u-_58iLFmG-127" value="" style="edgeStyle=orthogonalEdgeStyle;rounded=0;orthogonalLoop=1;jettySize=auto;html=1;" edge="1" parent="1" source="-wAExD0xk3u-_58iLFmG-125" target="-wAExD0xk3u-_58iLFmG-97">
          <mxGeometry relative="1" as="geometry" />
        </mxCell>
        <mxCell id="-wAExD0xk3u-_58iLFmG-129" value="是" style="edgeLabel;html=1;align=center;verticalAlign=middle;resizable=0;points=[];" vertex="1" connectable="0" parent="-wAExD0xk3u-_58iLFmG-127">
          <mxGeometry x="-0.3802" y="2" relative="1" as="geometry">
            <mxPoint as="offset" />
          </mxGeometry>
        </mxCell>
        <mxCell id="-wAExD0xk3u-_58iLFmG-134" value="" style="edgeStyle=orthogonalEdgeStyle;rounded=0;orthogonalLoop=1;jettySize=auto;html=1;" edge="1" parent="1" source="-wAExD0xk3u-_58iLFmG-125" target="-wAExD0xk3u-_58iLFmG-133">
          <mxGeometry relative="1" as="geometry" />
        </mxCell>
        <mxCell id="-wAExD0xk3u-_58iLFmG-162" value="否" style="edgeLabel;html=1;align=center;verticalAlign=middle;resizable=0;points=[];" vertex="1" connectable="0" parent="-wAExD0xk3u-_58iLFmG-134">
          <mxGeometry x="-0.2343" relative="1" as="geometry">
            <mxPoint as="offset" />
          </mxGeometry>
        </mxCell>
        <mxCell id="-wAExD0xk3u-_58iLFmG-125" value="是否新用户？" style="rhombus;whiteSpace=wrap;html=1;fillColor=#FFFFCC;fontStyle=1;strokeWidth=3;" vertex="1" parent="1">
          <mxGeometry x="1107.5" y="107" width="115" height="89" as="geometry" />
        </mxCell>
        <mxCell id="-wAExD0xk3u-_58iLFmG-128" value="" style="edgeStyle=orthogonalEdgeStyle;rounded=0;orthogonalLoop=1;jettySize=auto;html=1;" edge="1" parent="1" source="-wAExD0xk3u-_58iLFmG-126" target="-wAExD0xk3u-_58iLFmG-125">
          <mxGeometry relative="1" as="geometry" />
        </mxCell>
        <mxCell id="-wAExD0xk3u-_58iLFmG-126" value="进入活动页" style="rounded=1;whiteSpace=wrap;html=1;fillColor=#d5e8d4;strokeWidth=3;strokeColor=#82b366;" vertex="1" parent="1">
          <mxGeometry x="1105" width="120" height="60" as="geometry" />
        </mxCell>
        <mxCell id="-wAExD0xk3u-_58iLFmG-135" value="" style="edgeStyle=orthogonalEdgeStyle;rounded=0;orthogonalLoop=1;jettySize=auto;html=1;" edge="1" parent="1" source="-wAExD0xk3u-_58iLFmG-133" target="-wAExD0xk3u-_58iLFmG-99">
          <mxGeometry relative="1" as="geometry" />
        </mxCell>
        <mxCell id="-wAExD0xk3u-_58iLFmG-136" value="否" style="edgeLabel;html=1;align=center;verticalAlign=middle;resizable=0;points=[];" vertex="1" connectable="0" parent="-wAExD0xk3u-_58iLFmG-135">
          <mxGeometry x="-0.0609" y="-1" relative="1" as="geometry">
            <mxPoint as="offset" />
          </mxGeometry>
        </mxCell>
        <mxCell id="-wAExD0xk3u-_58iLFmG-152" style="edgeStyle=orthogonalEdgeStyle;rounded=0;orthogonalLoop=1;jettySize=auto;html=1;exitX=1;exitY=0.5;exitDx=0;exitDy=0;entryX=0.5;entryY=0;entryDx=0;entryDy=0;" edge="1" parent="1" source="-wAExD0xk3u-_58iLFmG-133" target="-wAExD0xk3u-_58iLFmG-137">
          <mxGeometry relative="1" as="geometry" />
        </mxCell>
        <mxCell id="-wAExD0xk3u-_58iLFmG-161" value="是" style="edgeLabel;html=1;align=center;verticalAlign=middle;resizable=0;points=[];" vertex="1" connectable="0" parent="-wAExD0xk3u-_58iLFmG-152">
          <mxGeometry x="-0.3271" y="4" relative="1" as="geometry">
            <mxPoint as="offset" />
          </mxGeometry>
        </mxCell>
        <mxCell id="-wAExD0xk3u-_58iLFmG-133" value="是否排队？" style="rhombus;whiteSpace=wrap;html=1;fillColor=#FFFFCC;fontStyle=1;strokeWidth=3;" vertex="1" parent="1">
          <mxGeometry x="1107.5" y="250" width="115" height="89" as="geometry" />
        </mxCell>
        <mxCell id="-wAExD0xk3u-_58iLFmG-153" value="" style="edgeStyle=orthogonalEdgeStyle;rounded=0;orthogonalLoop=1;jettySize=auto;html=1;" edge="1" parent="1" source="-wAExD0xk3u-_58iLFmG-137" target="-wAExD0xk3u-_58iLFmG-145">
          <mxGeometry relative="1" as="geometry" />
        </mxCell>
        <mxCell id="-wAExD0xk3u-_58iLFmG-137" value="显示排队进度" style="whiteSpace=wrap;html=1;fillColor=#FFFFCC;fontStyle=1;strokeWidth=3;" vertex="1" parent="1">
          <mxGeometry x="1437.5" y="416" width="120" height="60" as="geometry" />
        </mxCell>
        <mxCell id="-wAExD0xk3u-_58iLFmG-154" value="" style="edgeStyle=orthogonalEdgeStyle;rounded=0;orthogonalLoop=1;jettySize=auto;html=1;" edge="1" parent="1" source="-wAExD0xk3u-_58iLFmG-145" target="-wAExD0xk3u-_58iLFmG-99">
          <mxGeometry relative="1" as="geometry" />
        </mxCell>
        <mxCell id="-wAExD0xk3u-_58iLFmG-159" value="是" style="edgeLabel;html=1;align=center;verticalAlign=middle;resizable=0;points=[];" vertex="1" connectable="0" parent="-wAExD0xk3u-_58iLFmG-154">
          <mxGeometry x="-0.1336" y="1" relative="1" as="geometry">
            <mxPoint as="offset" />
          </mxGeometry>
        </mxCell>
        <mxCell id="-wAExD0xk3u-_58iLFmG-158" value="" style="edgeStyle=orthogonalEdgeStyle;rounded=0;orthogonalLoop=1;jettySize=auto;html=1;" edge="1" parent="1" source="-wAExD0xk3u-_58iLFmG-145" target="-wAExD0xk3u-_58iLFmG-157">
          <mxGeometry relative="1" as="geometry" />
        </mxCell>
        <mxCell id="-wAExD0xk3u-_58iLFmG-160" value="否" style="edgeLabel;html=1;align=center;verticalAlign=middle;resizable=0;points=[];" vertex="1" connectable="0" parent="-wAExD0xk3u-_58iLFmG-158">
          <mxGeometry x="-0.2438" y="-3" relative="1" as="geometry">
            <mxPoint as="offset" />
          </mxGeometry>
        </mxCell>
        <mxCell id="-wAExD0xk3u-_58iLFmG-145" value="是否排队完成？" style="rhombus;whiteSpace=wrap;html=1;fillColor=#FFFFCC;fontStyle=1;strokeWidth=3;" vertex="1" parent="1">
          <mxGeometry x="1267.5" y="396.75" width="112.5" height="98.5" as="geometry" />
        </mxCell>
        <mxCell id="-wAExD0xk3u-_58iLFmG-157" value="分享 &amp;amp; 助力 &amp;amp; 催促" style="whiteSpace=wrap;html=1;fillColor=#FFFFCC;fontStyle=1;strokeWidth=3;" vertex="1" parent="1">
          <mxGeometry x="1264.75" y="555" width="120" height="60" as="geometry" />
        </mxCell>
        <mxCell id="-wAExD0xk3u-_58iLFmG-166" value="" style="edgeStyle=orthogonalEdgeStyle;rounded=0;orthogonalLoop=1;jettySize=auto;html=1;" edge="1" parent="1" source="-wAExD0xk3u-_58iLFmG-163" target="-wAExD0xk3u-_58iLFmG-165">
          <mxGeometry relative="1" as="geometry" />
        </mxCell>
        <mxCell id="-wAExD0xk3u-_58iLFmG-170" value="否" style="edgeLabel;html=1;align=center;verticalAlign=middle;resizable=0;points=[];" vertex="1" connectable="0" parent="-wAExD0xk3u-_58iLFmG-166">
          <mxGeometry x="-0.1739" y="3" relative="1" as="geometry">
            <mxPoint as="offset" />
          </mxGeometry>
        </mxCell>
        <mxCell id="-wAExD0xk3u-_58iLFmG-168" value="" style="edgeStyle=orthogonalEdgeStyle;rounded=0;orthogonalLoop=1;jettySize=auto;html=1;" edge="1" parent="1" source="-wAExD0xk3u-_58iLFmG-163" target="-wAExD0xk3u-_58iLFmG-167">
          <mxGeometry relative="1" as="geometry" />
        </mxCell>
        <mxCell id="-wAExD0xk3u-_58iLFmG-169" value="是" style="edgeLabel;html=1;align=center;verticalAlign=middle;resizable=0;points=[];" vertex="1" connectable="0" parent="-wAExD0xk3u-_58iLFmG-168">
          <mxGeometry x="0.0872" y="2" relative="1" as="geometry">
            <mxPoint as="offset" />
          </mxGeometry>
        </mxCell>
        <mxCell id="-wAExD0xk3u-_58iLFmG-163" value="是否第一次中奖" style="rhombus;whiteSpace=wrap;html=1;fillColor=#FFFFCC;fontStyle=1;strokeWidth=3;" vertex="1" parent="1">
          <mxGeometry x="1092.5" y="1240" width="145" height="110" as="geometry" />
        </mxCell>
        <mxCell id="-wAExD0xk3u-_58iLFmG-172" value="" style="edgeStyle=orthogonalEdgeStyle;rounded=0;orthogonalLoop=1;jettySize=auto;html=1;" edge="1" parent="1" source="-wAExD0xk3u-_58iLFmG-165" target="-wAExD0xk3u-_58iLFmG-171">
          <mxGeometry relative="1" as="geometry" />
        </mxCell>
        <mxCell id="-wAExD0xk3u-_58iLFmG-186" value="" style="edgeStyle=orthogonalEdgeStyle;rounded=0;orthogonalLoop=1;jettySize=auto;html=1;" edge="1" parent="1" source="-wAExD0xk3u-_58iLFmG-165" target="-wAExD0xk3u-_58iLFmG-185">
          <mxGeometry relative="1" as="geometry" />
        </mxCell>
        <mxCell id="-wAExD0xk3u-_58iLFmG-165" value="奖金飞入钱包动画" style="whiteSpace=wrap;html=1;fillColor=#FFFFCC;fontStyle=1;strokeWidth=3;" vertex="1" parent="1">
          <mxGeometry x="1105" y="1390" width="120" height="60" as="geometry" />
        </mxCell>
        <mxCell id="-wAExD0xk3u-_58iLFmG-167" value="" style="whiteSpace=wrap;html=1;fillColor=#FFFFCC;fontStyle=1;strokeWidth=3;" vertex="1" parent="1">
          <mxGeometry x="1305" y="1265" width="120" height="60" as="geometry" />
        </mxCell>
        <mxCell id="-wAExD0xk3u-_58iLFmG-174" value="" style="edgeStyle=orthogonalEdgeStyle;rounded=0;orthogonalLoop=1;jettySize=auto;html=1;" edge="1" parent="1" source="-wAExD0xk3u-_58iLFmG-171" target="-wAExD0xk3u-_58iLFmG-173">
          <mxGeometry relative="1" as="geometry" />
        </mxCell>
        <mxCell id="-wAExD0xk3u-_58iLFmG-171" value="打开钱包" style="whiteSpace=wrap;html=1;fillColor=#FFFFCC;fontStyle=1;strokeWidth=3;" vertex="1" parent="1">
          <mxGeometry x="1305" y="1390" width="120" height="60" as="geometry" />
        </mxCell>
        <mxCell id="-wAExD0xk3u-_58iLFmG-178" value="" style="edgeStyle=orthogonalEdgeStyle;rounded=0;orthogonalLoop=1;jettySize=auto;html=1;" edge="1" parent="1" source="-wAExD0xk3u-_58iLFmG-173" target="-wAExD0xk3u-_58iLFmG-177">
          <mxGeometry relative="1" as="geometry" />
        </mxCell>
        <mxCell id="-wAExD0xk3u-_58iLFmG-173" value="选择可提现金额" style="whiteSpace=wrap;html=1;fillColor=#FFFFCC;fontStyle=1;strokeWidth=3;" vertex="1" parent="1">
          <mxGeometry x="1505" y="1390" width="120" height="60" as="geometry" />
        </mxCell>
        <mxCell id="-wAExD0xk3u-_58iLFmG-180" value="" style="edgeStyle=orthogonalEdgeStyle;rounded=0;orthogonalLoop=1;jettySize=auto;html=1;" edge="1" parent="1" source="-wAExD0xk3u-_58iLFmG-177" target="-wAExD0xk3u-_58iLFmG-179">
          <mxGeometry relative="1" as="geometry" />
        </mxCell>
        <mxCell id="-wAExD0xk3u-_58iLFmG-181" value="是" style="edgeLabel;html=1;align=center;verticalAlign=middle;resizable=0;points=[];" vertex="1" connectable="0" parent="-wAExD0xk3u-_58iLFmG-180">
          <mxGeometry x="0.2812" y="-3" relative="1" as="geometry">
            <mxPoint x="-14" y="-3" as="offset" />
          </mxGeometry>
        </mxCell>
        <mxCell id="-wAExD0xk3u-_58iLFmG-183" value="" style="edgeStyle=orthogonalEdgeStyle;rounded=0;orthogonalLoop=1;jettySize=auto;html=1;" edge="1" parent="1" source="-wAExD0xk3u-_58iLFmG-177" target="-wAExD0xk3u-_58iLFmG-182">
          <mxGeometry relative="1" as="geometry" />
        </mxCell>
        <mxCell id="-wAExD0xk3u-_58iLFmG-184" value="否" style="edgeLabel;html=1;align=center;verticalAlign=middle;resizable=0;points=[];" vertex="1" connectable="0" parent="-wAExD0xk3u-_58iLFmG-183">
          <mxGeometry x="-0.4016" y="1" relative="1" as="geometry">
            <mxPoint x="-1" y="9" as="offset" />
          </mxGeometry>
        </mxCell>
        <mxCell id="-wAExD0xk3u-_58iLFmG-177" value="是否余额满足条件？" style="rhombus;whiteSpace=wrap;html=1;fillColor=#FFFFCC;fontStyle=1;strokeWidth=3;" vertex="1" parent="1">
          <mxGeometry x="1702.5" y="1365" width="125" height="110" as="geometry" />
        </mxCell>
        <mxCell id="-wAExD0xk3u-_58iLFmG-179" value="提现至Taurus可提现资产" style="whiteSpace=wrap;html=1;fillColor=#FFFFCC;fontStyle=1;strokeWidth=3;" vertex="1" parent="1">
          <mxGeometry x="1900" y="1390" width="120" height="60" as="geometry" />
        </mxCell>
        <mxCell id="-wAExD0xk3u-_58iLFmG-182" value="余额不足弹窗" style="whiteSpace=wrap;html=1;fillColor=#FFFFCC;fontStyle=1;strokeWidth=3;" vertex="1" parent="1">
          <mxGeometry x="1705" y="1530" width="120" height="60" as="geometry" />
        </mxCell>
        <mxCell id="-wAExD0xk3u-_58iLFmG-187" style="edgeStyle=orthogonalEdgeStyle;rounded=0;orthogonalLoop=1;jettySize=auto;html=1;exitX=0.5;exitY=0;exitDx=0;exitDy=0;entryX=0;entryY=0.5;entryDx=0;entryDy=0;" edge="1" parent="1" source="-wAExD0xk3u-_58iLFmG-185" target="-wAExD0xk3u-_58iLFmG-133">
          <mxGeometry relative="1" as="geometry" />
        </mxCell>
        <mxCell id="-wAExD0xk3u-_58iLFmG-185" value="排队动画&lt;div&gt;or 免排队动画&lt;/div&gt;" style="whiteSpace=wrap;html=1;fillColor=#FFFFCC;fontStyle=1;strokeWidth=3;" vertex="1" parent="1">
          <mxGeometry x="900" y="660" width="120" height="60" as="geometry" />
        </mxCell>
        <mxCell id="-wAExD0xk3u-_58iLFmG-190" style="edgeStyle=orthogonalEdgeStyle;rounded=0;orthogonalLoop=1;jettySize=auto;html=1;exitX=0.5;exitY=1;exitDx=0;exitDy=0;entryX=0.5;entryY=0;entryDx=0;entryDy=0;" edge="1" parent="1" source="-wAExD0xk3u-_58iLFmG-188" target="-wAExD0xk3u-_58iLFmG-163">
          <mxGeometry relative="1" as="geometry" />
        </mxCell>
        <mxCell id="-wAExD0xk3u-_58iLFmG-191" value="否" style="edgeLabel;html=1;align=center;verticalAlign=middle;resizable=0;points=[];" vertex="1" connectable="0" parent="-wAExD0xk3u-_58iLFmG-190">
          <mxGeometry x="-0.127" y="-2" relative="1" as="geometry">
            <mxPoint as="offset" />
          </mxGeometry>
        </mxCell>
        <mxCell id="-wAExD0xk3u-_58iLFmG-193" value="" style="edgeStyle=orthogonalEdgeStyle;rounded=0;orthogonalLoop=1;jettySize=auto;html=1;" edge="1" parent="1" source="-wAExD0xk3u-_58iLFmG-188" target="-wAExD0xk3u-_58iLFmG-192">
          <mxGeometry relative="1" as="geometry" />
        </mxCell>
        <mxCell id="-wAExD0xk3u-_58iLFmG-194" value="是" style="edgeLabel;html=1;align=center;verticalAlign=middle;resizable=0;points=[];" vertex="1" connectable="0" parent="-wAExD0xk3u-_58iLFmG-193">
          <mxGeometry x="-0.0355" y="2" relative="1" as="geometry">
            <mxPoint as="offset" />
          </mxGeometry>
        </mxCell>
        <mxCell id="-wAExD0xk3u-_58iLFmG-188" value="是否有活动余额？" style="rhombus;whiteSpace=wrap;html=1;fillColor=#FFFFCC;fontStyle=1;strokeWidth=3;" vertex="1" parent="1">
          <mxGeometry x="1087.5" y="1064" width="155" height="105" as="geometry" />
        </mxCell>
        <mxCell id="-wAExD0xk3u-_58iLFmG-192" value="增加余额&lt;div&gt;金币飞入动画&lt;/div&gt;" style="whiteSpace=wrap;html=1;fillColor=#FFFFCC;fontStyle=1;strokeWidth=3;" vertex="1" parent="1">
          <mxGeometry x="1300" y="1086.5" width="120" height="60" as="geometry" />
        </mxCell>
        <mxCell id="-wAExD0xk3u-_58iLFmG-198" value="" style="edgeStyle=orthogonalEdgeStyle;rounded=0;orthogonalLoop=1;jettySize=auto;html=1;" edge="1" parent="1" source="-wAExD0xk3u-_58iLFmG-196" target="-wAExD0xk3u-_58iLFmG-188">
          <mxGeometry relative="1" as="geometry" />
        </mxCell>
        <mxCell id="-wAExD0xk3u-_58iLFmG-199" value="是" style="edgeLabel;html=1;align=center;verticalAlign=middle;resizable=0;points=[];" vertex="1" connectable="0" parent="-wAExD0xk3u-_58iLFmG-198">
          <mxGeometry x="-0.1794" relative="1" as="geometry">
            <mxPoint as="offset" />
          </mxGeometry>
        </mxCell>
        <mxCell id="-wAExD0xk3u-_58iLFmG-201" value="" style="edgeStyle=orthogonalEdgeStyle;rounded=0;orthogonalLoop=1;jettySize=auto;html=1;" edge="1" parent="1" source="-wAExD0xk3u-_58iLFmG-196" target="-wAExD0xk3u-_58iLFmG-200">
          <mxGeometry relative="1" as="geometry" />
        </mxCell>
        <mxCell id="-wAExD0xk3u-_58iLFmG-203" value="否" style="edgeLabel;html=1;align=center;verticalAlign=middle;resizable=0;points=[];" vertex="1" connectable="0" parent="-wAExD0xk3u-_58iLFmG-201">
          <mxGeometry x="-0.197" y="1" relative="1" as="geometry">
            <mxPoint as="offset" />
          </mxGeometry>
        </mxCell>
        <mxCell id="-wAExD0xk3u-_58iLFmG-196" value="是否金钱奖励？" style="rhombus;whiteSpace=wrap;html=1;fillColor=#FFFFCC;fontStyle=1;strokeWidth=3;" vertex="1" parent="1">
          <mxGeometry x="1097.5" y="930" width="135" height="85" as="geometry" />
        </mxCell>
        <mxCell id="-wAExD0xk3u-_58iLFmG-200" value="道具奖励&lt;div&gt;（啦啦队/免排队）&lt;/div&gt;" style="whiteSpace=wrap;html=1;fillColor=#FFFFCC;fontStyle=1;strokeWidth=3;" vertex="1" parent="1">
          <mxGeometry x="1305" y="942.5" width="120" height="60" as="geometry" />
        </mxCell>
      </root>
    </mxGraphModel>
  </diagram>
</mxfile>
